# xmcd CD database file
#
# Track frame offsets:
#	150
#	16177
#	30755
#	43940
#	58655
#	86350
#	103787
#	118797
#	138847
#	154860
#
# Disc length: 2313 seconds
#
# Revision: 2
# Processed by: cddbd v1.5.2PL0 Copyright (c) Steve Scherf et al.
# Submitted via: CDex 1.70beta3
#
DISCID=7509070a
DTITLE=甲斐バンド - 英雄と悪漢
DYEAR=1975
DGENRE=J-Rock
TTITLE0=ポップコーンをほおばって
TTITLE1=東京の冷たい壁にもたれて
TTITLE2=光と影
TTITLE3=裏切りの街角
TTITLE4=風が唄った日
TTITLE5=狂った夜
TTITLE6=かりそめのスウィング
TTITLE7=昨日のように
TTITLE8=一日の終り
TTITLE9=絵日記 -薔薇色の人生-
EXTD=YEAR: 1975
EXTT0=
EXTT1=
EXTT2=
EXTT3=
EXTT4=
EXTT5=
EXTT6=
EXTT7=
EXTT8=
EXTT9=
PLAYORDER=
